<mxfile host="app.diagrams.net" modified="2020-11-30T16:38:13.933Z" agent="5.0 (X11)" etag="oaiHmqNnpG144YnaFUgE" version="13.10.4" type="github">
  <diagram id="M0pBNk_IaawKud6XXBu3" name="Page-1">
    <mxGraphModel dx="868" dy="526" grid="1" gridSize="10" guides="1" tooltips="1" connect="1" arrows="1" fold="1" page="1" pageScale="1" pageWidth="827" pageHeight="1169" math="0" shadow="0">
      <root>
        <mxCell id="0" />
        <mxCell id="1" parent="0" />
        <mxCell id="wbw6o5jkAs7Geb7jRiB--2" value="Початок" style="strokeWidth=1;html=1;shape=mxgraph.flowchart.terminator;whiteSpace=wrap;" vertex="1" parent="1">
          <mxGeometry x="364" y="60" width="100" height="60" as="geometry" />
        </mxCell>
        <mxCell id="wbw6o5jkAs7Geb7jRiB--35" value="" style="edgeStyle=orthogonalEdgeStyle;rounded=1;orthogonalLoop=1;jettySize=auto;html=1;endArrow=classic;endFill=1;fontSize=12;" edge="1" parent="1" source="wbw6o5jkAs7Geb7jRiB--7" target="wbw6o5jkAs7Geb7jRiB--10">
          <mxGeometry relative="1" as="geometry" />
        </mxCell>
        <mxCell id="wbw6o5jkAs7Geb7jRiB--38" value="" style="edgeStyle=orthogonalEdgeStyle;rounded=1;orthogonalLoop=1;jettySize=auto;html=1;endArrow=classic;endFill=1;fontSize=12;" edge="1" parent="1" source="wbw6o5jkAs7Geb7jRiB--7" target="wbw6o5jkAs7Geb7jRiB--10">
          <mxGeometry relative="1" as="geometry">
            <Array as="points">
              <mxPoint x="414" y="210" />
              <mxPoint x="414" y="210" />
            </Array>
          </mxGeometry>
        </mxCell>
        <mxCell id="wbw6o5jkAs7Geb7jRiB--39" value="" style="edgeStyle=orthogonalEdgeStyle;rounded=1;orthogonalLoop=1;jettySize=auto;html=1;endArrow=classic;endFill=1;fontSize=12;" edge="1" parent="1" source="wbw6o5jkAs7Geb7jRiB--7">
          <mxGeometry relative="1" as="geometry">
            <mxPoint x="414" y="210" as="targetPoint" />
          </mxGeometry>
        </mxCell>
        <mxCell id="wbw6o5jkAs7Geb7jRiB--7" value="num" style="rounded=0;whiteSpace=wrap;html=1;fontSize=12;" vertex="1" parent="1">
          <mxGeometry x="354" y="130" width="120" height="60" as="geometry" />
        </mxCell>
        <mxCell id="wbw6o5jkAs7Geb7jRiB--8" value="compare_nums_for(sum_half1, sum_half2)" style="shape=process;whiteSpace=wrap;html=1;backgroundOutline=1;fontSize=12;" vertex="1" parent="1">
          <mxGeometry x="500" y="360" width="220" height="70" as="geometry" />
        </mxCell>
        <mxCell id="wbw6o5jkAs7Geb7jRiB--36" style="edgeStyle=orthogonalEdgeStyle;rounded=1;orthogonalLoop=1;jettySize=auto;html=1;endArrow=classic;endFill=1;fontSize=12;" edge="1" parent="1" source="wbw6o5jkAs7Geb7jRiB--9">
          <mxGeometry relative="1" as="geometry">
            <mxPoint x="414" y="210" as="targetPoint" />
          </mxGeometry>
        </mxCell>
        <mxCell id="wbw6o5jkAs7Geb7jRiB--37" style="edgeStyle=orthogonalEdgeStyle;rounded=1;orthogonalLoop=1;jettySize=auto;html=1;entryX=0.5;entryY=0;entryDx=0;entryDy=0;endArrow=classic;endFill=1;fontSize=12;" edge="1" parent="1" source="wbw6o5jkAs7Geb7jRiB--9" target="wbw6o5jkAs7Geb7jRiB--10">
          <mxGeometry relative="1" as="geometry" />
        </mxCell>
        <mxCell id="wbw6o5jkAs7Geb7jRiB--9" value="sum_half1" style="rounded=0;whiteSpace=wrap;html=1;fontSize=12;" vertex="1" parent="1">
          <mxGeometry x="354" y="210" width="120" height="60" as="geometry" />
        </mxCell>
        <mxCell id="wbw6o5jkAs7Geb7jRiB--40" value="" style="edgeStyle=orthogonalEdgeStyle;rounded=1;orthogonalLoop=1;jettySize=auto;html=1;endArrow=classic;endFill=1;fontSize=12;" edge="1" parent="1" source="wbw6o5jkAs7Geb7jRiB--10" target="wbw6o5jkAs7Geb7jRiB--14">
          <mxGeometry relative="1" as="geometry" />
        </mxCell>
        <mxCell id="wbw6o5jkAs7Geb7jRiB--42" value="" style="edgeStyle=orthogonalEdgeStyle;rounded=1;orthogonalLoop=1;jettySize=auto;html=1;endArrow=classic;endFill=1;fontSize=12;entryX=0.5;entryY=0;entryDx=0;entryDy=0;" edge="1" parent="1" source="wbw6o5jkAs7Geb7jRiB--10" target="wbw6o5jkAs7Geb7jRiB--11">
          <mxGeometry relative="1" as="geometry" />
        </mxCell>
        <mxCell id="wbw6o5jkAs7Geb7jRiB--10" value="sum_half2" style="rounded=0;whiteSpace=wrap;html=1;fontSize=12;" vertex="1" parent="1">
          <mxGeometry x="354" y="290" width="120" height="60" as="geometry" />
        </mxCell>
        <mxCell id="wbw6o5jkAs7Geb7jRiB--41" style="edgeStyle=orthogonalEdgeStyle;rounded=1;orthogonalLoop=1;jettySize=auto;html=1;endArrow=classic;endFill=1;fontSize=12;" edge="1" parent="1" source="wbw6o5jkAs7Geb7jRiB--11">
          <mxGeometry relative="1" as="geometry">
            <mxPoint x="414" y="370" as="targetPoint" />
          </mxGeometry>
        </mxCell>
        <mxCell id="wbw6o5jkAs7Geb7jRiB--11" value="result_for" style="rounded=0;whiteSpace=wrap;html=1;fontSize=12;" vertex="1" parent="1">
          <mxGeometry x="354" y="370" width="120" height="60" as="geometry" />
        </mxCell>
        <mxCell id="wbw6o5jkAs7Geb7jRiB--12" value="get_sum_half2(num)" style="shape=process;whiteSpace=wrap;html=1;backgroundOutline=1;fontSize=12;" vertex="1" parent="1">
          <mxGeometry x="500" y="290" width="220" height="60" as="geometry" />
        </mxCell>
        <mxCell id="wbw6o5jkAs7Geb7jRiB--13" value="get_sum_half1(num)" style="shape=process;whiteSpace=wrap;html=1;backgroundOutline=1;fontSize=12;" vertex="1" parent="1">
          <mxGeometry x="500" y="210" width="220" height="60" as="geometry" />
        </mxCell>
        <mxCell id="wbw6o5jkAs7Geb7jRiB--43" value="" style="edgeStyle=orthogonalEdgeStyle;rounded=1;orthogonalLoop=1;jettySize=auto;html=1;endArrow=classic;endFill=1;fontSize=12;entryX=0.5;entryY=0;entryDx=0;entryDy=0;" edge="1" parent="1" source="wbw6o5jkAs7Geb7jRiB--14" target="wbw6o5jkAs7Geb7jRiB--16">
          <mxGeometry relative="1" as="geometry" />
        </mxCell>
        <mxCell id="wbw6o5jkAs7Geb7jRiB--14" value="result_while" style="rounded=0;whiteSpace=wrap;html=1;fontSize=12;" vertex="1" parent="1">
          <mxGeometry x="354" y="450" width="120" height="60" as="geometry" />
        </mxCell>
        <mxCell id="wbw6o5jkAs7Geb7jRiB--15" value="compare_nums_while(sum_half1, sum_half2)" style="shape=process;whiteSpace=wrap;html=1;backgroundOutline=1;fontSize=12;" vertex="1" parent="1">
          <mxGeometry x="500" y="450" width="220" height="60" as="geometry" />
        </mxCell>
        <mxCell id="wbw6o5jkAs7Geb7jRiB--44" value="" style="edgeStyle=orthogonalEdgeStyle;rounded=1;orthogonalLoop=1;jettySize=auto;html=1;endArrow=classic;endFill=1;fontSize=12;" edge="1" parent="1" source="wbw6o5jkAs7Geb7jRiB--16" target="wbw6o5jkAs7Geb7jRiB--19">
          <mxGeometry relative="1" as="geometry" />
        </mxCell>
        <mxCell id="wbw6o5jkAs7Geb7jRiB--16" value="result_do" style="rounded=0;whiteSpace=wrap;html=1;fontSize=12;" vertex="1" parent="1">
          <mxGeometry x="354" y="530" width="120" height="60" as="geometry" />
        </mxCell>
        <mxCell id="wbw6o5jkAs7Geb7jRiB--17" value="compare_nums_do(sum_half1, sum_half2)" style="shape=process;whiteSpace=wrap;html=1;backgroundOutline=1;fontSize=12;" vertex="1" parent="1">
          <mxGeometry x="500" y="530" width="220" height="60" as="geometry" />
        </mxCell>
        <mxCell id="wbw6o5jkAs7Geb7jRiB--19" value="Кінець" style="strokeWidth=1;html=1;shape=mxgraph.flowchart.terminator;whiteSpace=wrap;fontSize=12;" vertex="1" parent="1">
          <mxGeometry x="364" y="610" width="100" height="60" as="geometry" />
        </mxCell>
        <mxCell id="wbw6o5jkAs7Geb7jRiB--21" value="&lt;div&gt;Генерування&lt;/div&gt;&lt;div&gt; випадкового&lt;/div&gt;&lt;div&gt; початкового&lt;/div&gt;&lt;div&gt; числа &lt;br&gt;&lt;/div&gt;&lt;div&gt;від 100000 &lt;br&gt;&lt;/div&gt;&lt;div&gt;до 999999&lt;/div&gt;" style="strokeWidth=1;html=1;shape=mxgraph.flowchart.annotation_1;align=left;pointerEvents=1;fontSize=12;" vertex="1" parent="1">
          <mxGeometry x="540" y="110" width="50" height="100" as="geometry" />
        </mxCell>
        <mxCell id="wbw6o5jkAs7Geb7jRiB--22" value="" style="endArrow=none;html=1;fontSize=12;exitX=1;exitY=0.5;exitDx=0;exitDy=0;rounded=1;entryX=0;entryY=0.5;entryDx=0;entryDy=0;entryPerimeter=0;dashed=1;endFill=0;" edge="1" parent="1" source="wbw6o5jkAs7Geb7jRiB--7" target="wbw6o5jkAs7Geb7jRiB--21">
          <mxGeometry width="50" height="50" relative="1" as="geometry">
            <mxPoint x="420" y="300" as="sourcePoint" />
            <mxPoint x="540" y="152" as="targetPoint" />
          </mxGeometry>
        </mxCell>
        <mxCell id="wbw6o5jkAs7Geb7jRiB--30" value="" style="endArrow=classic;html=1;fontSize=12;exitX=1;exitY=0.5;exitDx=0;exitDy=0;entryX=0;entryY=0.5;entryDx=0;entryDy=0;" edge="1" parent="1" source="wbw6o5jkAs7Geb7jRiB--9" target="wbw6o5jkAs7Geb7jRiB--13">
          <mxGeometry width="50" height="50" relative="1" as="geometry">
            <mxPoint x="370" y="360" as="sourcePoint" />
            <mxPoint x="420" y="310" as="targetPoint" />
          </mxGeometry>
        </mxCell>
        <mxCell id="wbw6o5jkAs7Geb7jRiB--31" value="" style="endArrow=classic;html=1;fontSize=12;exitX=1;exitY=0.5;exitDx=0;exitDy=0;entryX=0;entryY=0.5;entryDx=0;entryDy=0;" edge="1" parent="1" source="wbw6o5jkAs7Geb7jRiB--10" target="wbw6o5jkAs7Geb7jRiB--12">
          <mxGeometry width="50" height="50" relative="1" as="geometry">
            <mxPoint x="370" y="360" as="sourcePoint" />
            <mxPoint x="420" y="310" as="targetPoint" />
          </mxGeometry>
        </mxCell>
        <mxCell id="wbw6o5jkAs7Geb7jRiB--32" value="" style="endArrow=classic;html=1;fontSize=12;exitX=1;exitY=0.5;exitDx=0;exitDy=0;" edge="1" parent="1" source="wbw6o5jkAs7Geb7jRiB--11">
          <mxGeometry width="50" height="50" relative="1" as="geometry">
            <mxPoint x="370" y="360" as="sourcePoint" />
            <mxPoint x="500" y="400" as="targetPoint" />
          </mxGeometry>
        </mxCell>
        <mxCell id="wbw6o5jkAs7Geb7jRiB--33" value="" style="endArrow=classic;html=1;fontSize=12;exitX=1;exitY=0.5;exitDx=0;exitDy=0;entryX=0;entryY=0.5;entryDx=0;entryDy=0;" edge="1" parent="1" source="wbw6o5jkAs7Geb7jRiB--14" target="wbw6o5jkAs7Geb7jRiB--15">
          <mxGeometry width="50" height="50" relative="1" as="geometry">
            <mxPoint x="370" y="360" as="sourcePoint" />
            <mxPoint x="420" y="310" as="targetPoint" />
          </mxGeometry>
        </mxCell>
        <mxCell id="wbw6o5jkAs7Geb7jRiB--34" value="" style="endArrow=classic;html=1;fontSize=12;exitX=1;exitY=0.5;exitDx=0;exitDy=0;entryX=0;entryY=0.5;entryDx=0;entryDy=0;" edge="1" parent="1" source="wbw6o5jkAs7Geb7jRiB--16" target="wbw6o5jkAs7Geb7jRiB--17">
          <mxGeometry width="50" height="50" relative="1" as="geometry">
            <mxPoint x="370" y="440" as="sourcePoint" />
            <mxPoint x="420" y="390" as="targetPoint" />
          </mxGeometry>
        </mxCell>
      </root>
    </mxGraphModel>
  </diagram>
</mxfile>
